# 
# Generated by Sweet Home 3D - mi? sep 22 10:30:35 CDT 2021
# http://www.sweethome3d.com/
# 
mtllib Escritorio.mtl
g ground_1
usemtl ground_1
v 773.5 0.0 15.560181
v 773.5 0.0 74.56018
v 893.5 0.0 74.56018
v 893.5 0.0 15.560181
vn 0.0 1.0 0.0
vn 0.0 0.0 0.0
f 1//1 2//1 3//1
f 1//1 3//1 4//1
g Cube_1_1_2
usemtl BoisClair
v 893.5 70.799644 74.56018
v 773.5 70.799644 74.56018
v 833.5 70.799644 45.06018
v 893.5 70.799644 15.560181
v 773.5 70.799644 15.560181
v 893.5 71.649826 45.06018
v 893.5 72.5 15.560181
v 893.5 72.5 74.56018
v 833.5 71.649826 74.56018
v 773.5 72.5 74.56018
v 773.5 71.649826 45.06018
v 773.5 72.5 15.560181
v 833.5 72.5 45.06018
v 833.5 71.649826 15.560181
vt 1.0 0.0 0
vt 0.0 0.0 0
vt 0.5 0.5 0
vt 1.0 1.0 0
vt 0.0 1.0 0
vt 1.0 0.5 0
vt 0.5 0.0 0
vt 0.0 0.5 0
vt 0.5 1.0 0
vn 0.0 -1.0 0.0
vn 1.0 0.0 0.0
vn 0.0 0.0 1.0
vn -1.0 0.0 0.0
vn 0.0 0.0 -1.0
f 5/1/3 6/2/3 7/3/3
f 8/4/3 5/1/3 7/3/3
f 9/5/3 8/4/3 7/3/3
f 6/2/3 9/5/3 7/3/3
f 5/1/4 8/4/4 10/6/4
f 8/4/4 11/4/4 10/6/4
f 11/4/4 12/1/4 10/6/4
f 12/1/4 5/1/4 10/6/4
f 6/2/5 5/1/5 13/7/5
f 5/1/5 12/1/5 13/7/5
f 12/1/5 14/2/5 13/7/5
f 14/2/5 6/2/5 13/7/5
f 9/5/6 6/2/6 15/8/6
f 6/2/6 14/2/6 15/8/6
f 14/2/6 16/5/6 15/8/6
f 16/5/6 9/5/6 15/8/6
f 14/2/1 12/1/1 17/3/1
f 12/1/1 11/4/1 17/3/1
f 11/4/1 16/5/1 17/3/1
f 16/5/1 14/2/1 17/3/1
f 8/4/7 9/5/7 18/9/7
f 9/5/7 16/5/7 18/9/7
f 16/5/7 11/4/7 18/9/7
f 11/4/7 8/4/7 18/9/7
g Cube_2_2_3
usemtl BoisClair
v 849.97906 0.0 69.58242
v 848.27905 0.0 69.58242
v 849.129 0.0 47.08242
v 849.97906 0.0 24.58242
v 848.27905 0.0 24.58242
v 849.97906 35.3573 47.08242
v 849.97906 70.7146 24.58242
v 849.97906 70.7146 69.58242
v 849.129 35.3573 69.58242
v 848.27905 70.7146 69.58242
v 848.27905 35.3573 47.08242
v 848.27905 70.7146 24.58242
v 849.129 70.7146 47.08242
v 849.129 35.3573 24.58242
f 19/1/3 20/1/3 21/7/3
f 22/2/3 19/1/3 21/7/3
f 23/2/3 22/2/3 21/7/3
f 20/1/3 23/2/3 21/7/3
f 19/1/4 22/2/4 24/3/4
f 22/2/4 25/5/4 24/3/4
f 25/5/4 26/4/4 24/3/4
f 26/4/4 19/1/4 24/3/4
f 20/1/5 19/1/5 27/6/5
f 19/1/5 26/4/5 27/6/5
f 26/4/5 28/4/5 27/6/5
f 28/4/5 20/1/5 27/6/5
f 23/2/6 20/1/6 29/3/6
f 20/1/6 28/4/6 29/3/6
f 28/4/6 30/5/6 29/3/6
f 30/5/6 23/2/6 29/3/6
f 28/4/1 26/4/1 31/9/1
f 26/4/1 25/5/1 31/9/1
f 25/5/1 30/5/1 31/9/1
f 30/5/1 28/4/1 31/9/1
f 22/2/7 23/2/7 32/8/7
f 23/2/7 30/5/7 32/8/7
f 30/5/7 25/5/7 32/8/7
f 25/5/7 22/2/7 32/8/7
g Cube_2_1_3_4
usemtl BoisClair
v 776.714 0.0 69.58242
v 775.014 0.0 69.58242
v 775.864 0.0 47.08242
v 776.714 0.0 24.58242
v 775.014 0.0 24.58242
v 776.714 35.3573 47.08242
v 776.714 70.7146 24.58242
v 776.714 70.7146 69.58242
v 775.864 35.3573 69.58242
v 775.014 70.7146 69.58242
v 775.014 35.3573 47.08242
v 775.014 70.7146 24.58242
v 775.864 70.7146 47.08242
v 775.864 35.3573 24.58242
f 33/1/3 34/1/3 35/7/3
f 36/2/3 33/1/3 35/7/3
f 37/2/3 36/2/3 35/7/3
f 34/1/3 37/2/3 35/7/3
f 33/1/4 36/2/4 38/3/4
f 36/2/4 39/5/4 38/3/4
f 39/5/4 40/4/4 38/3/4
f 40/4/4 33/1/4 38/3/4
f 34/1/5 33/1/5 41/6/5
f 33/1/5 40/4/5 41/6/5
f 40/4/5 42/4/5 41/6/5
f 42/4/5 34/1/5 41/6/5
f 37/2/6 34/1/6 43/3/6
f 34/1/6 42/4/6 43/3/6
f 42/4/6 44/5/6 43/3/6
f 44/5/6 37/2/6 43/3/6
f 42/4/1 40/4/1 45/9/1
f 40/4/1 39/5/1 45/9/1
f 39/5/1 44/5/1 45/9/1
f 44/5/1 42/4/1 45/9/1
f 36/2/7 37/2/7 46/8/7
f 37/2/7 44/5/7 46/8/7
f 44/5/7 39/5/7 46/8/7
f 39/5/7 36/2/7 46/8/7
g Cube_2_2_4_5
usemtl BoisClair
v 891.57056 0.0 69.58242
v 889.87054 0.0 69.58242
v 890.7206 0.0 47.08242
v 891.57056 0.0 24.58242
v 889.87054 0.0 24.58242
v 891.57056 35.3573 47.08242
v 891.57056 70.7146 24.58242
v 891.57056 70.7146 69.58242
v 890.7206 35.3573 69.58242
v 889.87054 70.7146 69.58242
v 889.87054 35.3573 47.08242
v 889.87054 70.7146 24.58242
v 890.7206 70.7146 47.08242
v 890.7206 35.3573 24.58242
f 47/1/3 48/1/3 49/7/3
f 50/2/3 47/1/3 49/7/3
f 51/2/3 50/2/3 49/7/3
f 48/1/3 51/2/3 49/7/3
f 47/1/4 50/2/4 52/3/4
f 50/2/4 53/5/4 52/3/4
f 53/5/4 54/4/4 52/3/4
f 54/4/4 47/1/4 52/3/4
f 48/1/5 47/1/5 55/6/5
f 47/1/5 54/4/5 55/6/5
f 54/4/5 56/4/5 55/6/5
f 56/4/5 48/1/5 55/6/5
f 51/2/6 48/1/6 57/3/6
f 48/1/6 56/4/6 57/3/6
f 56/4/6 58/5/6 57/3/6
f 58/5/6 51/2/6 57/3/6
f 56/4/1 54/4/1 59/9/1
f 54/4/1 53/5/1 59/9/1
f 53/5/1 58/5/1 59/9/1
f 58/5/1 56/4/1 59/9/1
f 50/2/7 51/2/7 60/8/7
f 51/2/7 58/5/7 60/8/7
f 58/5/7 53/5/7 60/8/7
f 53/5/7 50/2/7 60/8/7
g Cube_3_5_6
usemtl BoisClair
v 889.603 8.790825 69.503
v 850.103 8.790825 69.503
v 869.853 8.790825 68.653
v 889.603 8.790825 67.803
v 850.103 8.790825 67.803
v 889.603 27.99479 68.653
v 889.603 47.198757 67.803
v 889.603 47.198757 69.503
v 869.853 27.99479 69.503
v 850.103 47.198757 69.503
v 850.103 27.99479 68.653
v 850.103 47.198757 67.803
v 869.853 47.198757 68.653
v 869.853 27.99479 67.803
f 61/1/3 62/2/3 63/7/3
f 64/1/3 61/1/3 63/7/3
f 65/2/3 64/1/3 63/7/3
f 62/2/3 65/2/3 63/7/3
f 61/1/4 64/1/4 66/6/4
f 64/1/4 67/4/4 66/6/4
f 67/4/4 68/4/4 66/6/4
f 68/4/4 61/1/4 66/6/4
f 62/2/5 61/1/5 69/3/5
f 61/1/5 68/4/5 69/3/5
f 68/4/5 70/5/5 69/3/5
f 70/5/5 62/2/5 69/3/5
f 65/2/6 62/2/6 71/8/6
f 62/2/6 70/5/6 71/8/6
f 70/5/6 72/5/6 71/8/6
f 72/5/6 65/2/6 71/8/6
f 70/5/1 68/4/1 73/9/1
f 68/4/1 67/4/1 73/9/1
f 67/4/1 72/5/1 73/9/1
f 72/5/1 70/5/1 73/9/1
f 64/1/7 65/2/7 74/3/7
f 65/2/7 72/5/7 74/3/7
f 72/5/7 67/4/7 74/3/7
f 67/4/7 64/1/7 74/3/7
g Cube_4_6_7
usemtl BoisClair
v 889.68726 47.479973 69.503
v 850.18726 47.479973 69.503
v 869.93726 47.479973 68.653
v 889.68726 47.479973 67.803
v 850.18726 47.479973 67.803
v 889.68726 53.731266 68.653
v 889.68726 59.982555 67.803
v 889.68726 59.982555 69.503
v 869.93726 53.731266 69.503
v 850.18726 59.982555 69.503
v 850.18726 53.731266 68.653
v 850.18726 59.982555 67.803
v 869.93726 59.982555 68.653
v 869.93726 53.731266 67.803
f 75/1/3 76/2/3 77/7/3
f 78/1/3 75/1/3 77/7/3
f 79/2/3 78/1/3 77/7/3
f 76/2/3 79/2/3 77/7/3
f 75/1/4 78/1/4 80/6/4
f 78/1/4 81/4/4 80/6/4
f 81/4/4 82/4/4 80/6/4
f 82/4/4 75/1/4 80/6/4
f 76/2/5 75/1/5 83/3/5
f 75/1/5 82/4/5 83/3/5
f 82/4/5 84/5/5 83/3/5
f 84/5/5 76/2/5 83/3/5
f 79/2/6 76/2/6 85/8/6
f 76/2/6 84/5/6 85/8/6
f 84/5/6 86/5/6 85/8/6
f 86/5/6 79/2/6 85/8/6
f 84/5/1 82/4/1 87/9/1
f 82/4/1 81/4/1 87/9/1
f 81/4/1 86/5/1 87/9/1
f 86/5/1 84/5/1 87/9/1
f 78/1/7 79/2/7 88/3/7
f 79/2/7 86/5/7 88/3/7
f 86/5/7 81/4/7 88/3/7
f 81/4/7 78/1/7 88/3/7
g Cube_5_7_8
usemtl BoisClair
v 889.63324 0.17292543 69.503
v 850.13324 0.17292543 69.503
v 869.88324 0.17292543 68.653
v 889.63324 0.17292543 67.803
v 850.13324 0.17292543 67.803
v 889.63324 4.4238033 68.653
v 889.63324 8.67468 67.803
v 889.63324 8.67468 69.503
v 869.88324 4.4238033 69.503
v 850.13324 8.67468 69.503
v 850.13324 4.4238033 68.653
v 850.13324 8.67468 67.803
v 869.88324 8.67468 68.653
v 869.88324 4.4238033 67.803
f 89/1/3 90/2/3 91/7/3
f 92/1/3 89/1/3 91/7/3
f 93/2/3 92/1/3 91/7/3
f 90/2/3 93/2/3 91/7/3
f 89/1/4 92/1/4 94/6/4
f 92/1/4 95/4/4 94/6/4
f 95/4/4 96/4/4 94/6/4
f 96/4/4 89/1/4 94/6/4
f 90/2/5 89/1/5 97/3/5
f 89/1/5 96/4/5 97/3/5
f 96/4/5 98/5/5 97/3/5
f 98/5/5 90/2/5 97/3/5
f 93/2/6 90/2/6 99/8/6
f 90/2/6 98/5/6 99/8/6
f 98/5/6 100/5/6 99/8/6
f 100/5/6 93/2/6 99/8/6
f 98/5/1 96/4/1 101/9/1
f 96/4/1 95/4/1 101/9/1
f 95/4/1 100/5/1 101/9/1
f 100/5/1 98/5/1 101/9/1
f 92/1/7 93/2/7 102/3/7
f 93/2/7 100/5/7 102/3/7
f 100/5/7 95/4/7 102/3/7
f 95/4/7 92/1/7 102/3/7
g Cube_6_8_9
usemtl BoisClair
v 847.1338 56.188663 69.16027
v 777.6338 56.188663 69.16027
v 812.3838 56.188663 54.16027
v 847.1338 56.188663 39.16027
v 777.6338 56.188663 39.16027
v 847.1338 57.038837 54.16027
v 847.1338 57.88901 39.16027
v 847.1338 57.88901 69.16027
v 812.3838 57.038837 69.16027
v 777.6338 57.88901 69.16027
v 777.6338 57.038837 54.16027
v 777.6338 57.88901 39.16027
v 812.3838 57.88901 54.16027
v 812.3838 57.038837 39.16027
f 103/1/3 104/2/3 105/3/3
f 106/4/3 103/1/3 105/3/3
f 107/5/3 106/4/3 105/3/3
f 104/2/3 107/5/3 105/3/3
f 103/1/4 106/4/4 108/6/4
f 106/4/4 109/4/4 108/6/4
f 109/4/4 110/1/4 108/6/4
f 110/1/4 103/1/4 108/6/4
f 104/2/5 103/1/5 111/7/5
f 103/1/5 110/1/5 111/7/5
f 110/1/5 112/2/5 111/7/5
f 112/2/5 104/2/5 111/7/5
f 107/5/6 104/2/6 113/8/6
f 104/2/6 112/2/6 113/8/6
f 112/2/6 114/5/6 113/8/6
f 114/5/6 107/5/6 113/8/6
f 112/2/1 110/1/1 115/3/1
f 110/1/1 109/4/1 115/3/1
f 109/4/1 114/5/1 115/3/1
f 114/5/1 112/2/1 115/3/1
f 106/4/7 107/5/7 116/9/7
f 107/5/7 114/5/7 116/9/7
f 114/5/7 109/4/7 116/9/7
f 109/4/7 106/4/7 116/9/7
g Cube_7_9_10
usemtl BoisClair
v 848.1099 17.227875 26.361841
v 776.6099 17.227875 26.361841
v 812.3599 17.227875 25.51184
v 848.1099 17.227875 24.66184
v 776.6099 17.227875 24.66184
v 848.1099 24.229322 25.51184
v 848.1099 31.230768 24.66184
v 848.1099 31.230768 26.361841
v 812.3599 24.229322 26.361841
v 776.6099 31.230768 26.361841
v 776.6099 24.229322 25.51184
v 776.6099 31.230768 24.66184
v 812.3599 31.230768 25.51184
v 812.3599 24.229322 24.66184
f 117/1/3 118/2/3 119/7/3
f 120/1/3 117/1/3 119/7/3
f 121/2/3 120/1/3 119/7/3
f 118/2/3 121/2/3 119/7/3
f 117/1/4 120/1/4 122/6/4
f 120/1/4 123/4/4 122/6/4
f 123/4/4 124/4/4 122/6/4
f 124/4/4 117/1/4 122/6/4
f 118/2/5 117/1/5 125/3/5
f 117/1/5 124/4/5 125/3/5
f 124/4/5 126/5/5 125/3/5
f 126/5/5 118/2/5 125/3/5
f 121/2/6 118/2/6 127/8/6
f 118/2/6 126/5/6 127/8/6
f 126/5/6 128/5/6 127/8/6
f 128/5/6 121/2/6 127/8/6
f 126/5/1 124/4/1 129/9/1
f 124/4/1 123/4/1 129/9/1
f 123/4/1 128/5/1 129/9/1
f 128/5/1 126/5/1 129/9/1
f 120/1/7 121/2/7 130/3/7
f 121/2/7 128/5/7 130/3/7
f 128/5/7 123/4/7 130/3/7
f 123/4/7 120/1/7 130/3/7
g Cube_8_10_11
usemtl BoisClair
v 889.70166 58.853252 69.80466
v 850.20166 58.853252 69.80466
v 869.95166 58.853252 49.10466
v 889.70166 58.853252 28.404661
v 850.20166 58.853252 28.404661
v 889.70166 59.70343 49.10466
v 889.70166 60.553604 28.404661
v 889.70166 60.553604 69.80466
v 869.95166 59.70343 69.80466
v 850.20166 60.553604 69.80466
v 850.20166 59.70343 49.10466
v 850.20166 60.553604 28.404661
v 869.95166 60.553604 49.10466
v 869.95166 59.70343 28.404661
f 131/1/3 132/2/3 133/3/3
f 134/4/3 131/1/3 133/3/3
f 135/5/3 134/4/3 133/3/3
f 132/2/3 135/5/3 133/3/3
f 131/1/4 134/4/4 136/6/4
f 134/4/4 137/4/4 136/6/4
f 137/4/4 138/1/4 136/6/4
f 138/1/4 131/1/4 136/6/4
f 132/2/5 131/1/5 139/7/5
f 131/1/5 138/1/5 139/7/5
f 138/1/5 140/2/5 139/7/5
f 140/2/5 132/2/5 139/7/5
f 135/5/6 132/2/6 141/8/6
f 132/2/6 140/2/6 141/8/6
f 140/2/6 142/5/6 141/8/6
f 142/5/6 135/5/6 141/8/6
f 140/2/1 138/1/1 143/3/1
f 138/1/1 137/4/1 143/3/1
f 137/4/1 142/5/1 143/3/1
f 142/5/1 140/2/1 143/3/1
f 134/4/7 135/5/7 144/9/7
f 135/5/7 142/5/7 144/9/7
f 142/5/7 137/4/7 144/9/7
f 137/4/7 134/4/7 144/9/7
g Cube_3_1_11_12
usemtl BoisClair
v 890.2782 8.790825 26.048882
v 849.4278 8.790825 26.048882
v 869.853 8.790825 25.84888
v 890.2782 8.790825 25.64888
v 849.4278 8.790825 25.64888
v 890.2782 34.622707 25.84888
v 890.2782 60.454594 25.64888
v 890.2782 60.454594 26.048882
v 869.853 34.622707 26.048882
v 849.4278 60.454594 26.048882
v 849.4278 34.622707 25.84888
v 849.4278 60.454594 25.64888
v 869.853 60.454594 25.84888
v 869.853 34.622707 25.64888
f 145/1/3 146/2/3 147/7/3
f 148/1/3 145/1/3 147/7/3
f 149/2/3 148/1/3 147/7/3
f 146/2/3 149/2/3 147/7/3
f 145/1/4 148/1/4 150/6/4
f 148/1/4 151/4/4 150/6/4
f 151/4/4 152/4/4 150/6/4
f 152/4/4 145/1/4 150/6/4
f 146/2/5 145/1/5 153/3/5
f 145/1/5 152/4/5 153/3/5
f 152/4/5 154/5/5 153/3/5
f 154/5/5 146/2/5 153/3/5
f 149/2/6 146/2/6 155/8/6
f 146/2/6 154/5/6 155/8/6
f 154/5/6 156/5/6 155/8/6
f 156/5/6 149/2/6 155/8/6
f 154/5/1 152/4/1 157/9/1
f 152/4/1 151/4/1 157/9/1
f 151/4/1 156/5/1 157/9/1
f 156/5/1 154/5/1 157/9/1
f 148/1/7 149/2/7 158/3/7
f 149/2/7 156/5/7 158/3/7
f 156/5/7 151/4/7 158/3/7
f 151/4/7 148/1/7 158/3/7
g Cube_11_12_13
usemtl Default_Texture
v 874.77985 52.915726 71.64475
v 866.27985 52.915726 71.64475
v 870.52985 52.915726 70.544754
v 874.77985 52.915726 69.44475
v 866.27985 52.915726 69.44475
v 874.77985 53.41583 70.544754
v 874.77985 53.91593 69.44475
v 874.77985 53.91593 71.64475
v 870.52985 53.41583 71.64475
v 866.27985 53.91593 71.64475
v 866.27985 53.41583 70.544754
v 866.27985 53.91593 69.44475
v 870.52985 53.91593 70.544754
v 870.52985 53.41583 69.44475
f 159//3 160//3 161//3
f 162//3 159//3 161//3
f 163//3 162//3 161//3
f 160//3 163//3 161//3
f 159//4 162//4 164//4
f 162//4 165//4 164//4
f 165//4 166//4 164//4
f 166//4 159//4 164//4
f 160//5 159//5 167//5
f 159//5 166//5 167//5
f 166//5 168//5 167//5
f 168//5 160//5 167//5
f 163//6 160//6 169//6
f 160//6 168//6 169//6
f 168//6 170//6 169//6
f 170//6 163//6 169//6
f 168//1 166//1 171//1
f 166//1 165//1 171//1
f 165//1 170//1 171//1
f 170//1 168//1 171//1
f 162//7 163//7 172//7
f 163//7 170//7 172//7
f 170//7 165//7 172//7
f 165//7 162//7 172//7
g Cylinder_1_13_14
usemtl Default_Texture
v 866.27985 52.959736 70.83641
v 866.27985 52.769318 71.29603
v 866.27985 53.419453 71.29603
v 866.27985 53.419453 70.64603
v 866.27985 53.879166 70.83641
v 866.27985 54.069584 71.29603
v 866.27985 53.879166 71.75565
v 866.27985 53.419453 71.94603
v 866.27985 52.959736 71.75565
v 874.77985 52.769318 71.29603
v 874.77985 52.959736 70.83641
v 874.77985 53.419453 70.64603
v 874.77985 53.879166 70.83641
v 874.77985 54.069584 71.29603
v 874.77985 53.879166 71.75565
v 874.77985 53.419453 71.94603
v 874.77985 52.959736 71.75565
v 874.77985 53.419453 71.29603
vn 0.0 -0.7071798 -0.70703375
vn 0.0 0.7071798 -0.70703375
vn 0.0 0.7071798 0.70703375
vn 0.0 -0.7071798 0.70703375
f 173//6 174//6 175//6
f 176//6 173//6 175//6
f 177//6 176//6 175//6
f 178//6 177//6 175//6
f 179//6 178//6 175//6
f 180//6 179//6 175//6
f 181//6 180//6 175//6
f 174//6 181//6 175//6
f 182//3 174//3 173//8
f 183//8 173//8 176//7
f 184//7 176//7 177//9
f 185//9 177//9 178//1
f 186//1 178//1 179//10
f 187//10 179//10 180//5
f 188//5 180//5 181//11
f 189//11 181//11 174//3
f 182//3 173//8 183//8
f 183//8 176//7 184//7
f 184//7 177//9 185//9
f 185//9 178//1 186//1
f 186//1 179//10 187//10
f 187//10 180//5 188//5
f 188//5 181//11 189//11
f 189//11 174//3 182//3
f 190//4 182//4 183//4
f 190//4 183//4 184//4
f 190//4 184//4 185//4
f 190//4 185//4 186//4
f 190//4 186//4 187//4
f 190//4 187//4 188//4
f 190//4 188//4 189//4
f 190//4 189//4 182//4
g Cylinder_1_1_14_15
usemtl grios
v 853.5581 33.252384 70.78938
v 853.36774 33.252384 71.249
v 854.0177 33.252384 71.249
v 854.0177 33.252384 70.599
v 854.47736 33.252384 70.78938
v 854.6677 33.252384 71.249
v 854.47736 33.252384 71.70862
v 854.0177 33.252384 71.899
v 853.5581 33.252384 71.70862
v 853.36774 24.75063 71.249
v 853.5581 24.75063 70.78938
v 854.0177 24.75063 70.599
v 854.47736 24.75063 70.78938
v 854.6677 24.75063 71.249
v 854.47736 24.75063 71.70862
v 854.0177 24.75063 71.899
v 853.5581 24.75063 71.70862
v 854.0177 24.75063 71.249
vn -0.70710677 -0.0 -0.70710677
vn 0.70710677 0.0 -0.70710677
vn 0.70710677 0.0 0.70710677
vn -0.70710677 0.0 0.70710677
f 191//1 192//1 193//1
f 194//1 191//1 193//1
f 195//1 194//1 193//1
f 196//1 195//1 193//1
f 197//1 196//1 193//1
f 198//1 197//1 193//1
f 199//1 198//1 193//1
f 192//1 199//1 193//1
f 200//6 192//6 191//12
f 201//12 191//12 194//7
f 202//7 194//7 195//13
f 203//13 195//13 196//4
f 204//4 196//4 197//14
f 205//14 197//14 198//5
f 206//5 198//5 199//15
f 207//15 199//15 192//6
f 200//6 191//12 201//12
f 201//12 194//7 202//7
f 202//7 195//13 203//13
f 203//13 196//4 204//4
f 204//4 197//14 205//14
f 205//14 198//5 206//5
f 206//5 199//15 207//15
f 207//15 192//6 200//6
f 208//3 200//3 201//3
f 208//3 201//3 202//3
f 208//3 202//3 203//3
f 208//3 203//3 204//3
f 208//3 204//3 205//3
f 208//3 205//3 206//3
f 208//3 206//3 207//3
f 208//3 207//3 200//3
g Cube_11_1_15_16
usemtl grios
v 853.51733 24.747229 71.59741
v 853.51733 33.248985 71.59741
v 853.51733 28.998108 70.497406
v 853.51733 24.747229 69.397415
v 853.51733 33.248985 69.397415
v 854.01733 24.747229 70.497406
v 854.51733 24.747229 69.397415
v 854.51733 24.747229 71.59741
v 854.01733 28.998108 71.59741
v 854.51733 33.248985 71.59741
v 854.01733 33.248985 70.497406
v 854.51733 33.248985 69.397415
v 854.51733 28.998108 70.497406
v 854.01733 28.998108 69.397415
f 209//6 210//6 211//6
f 212//6 209//6 211//6
f 213//6 212//6 211//6
f 210//6 213//6 211//6
f 209//3 212//3 214//3
f 212//3 215//3 214//3
f 215//3 216//3 214//3
f 216//3 209//3 214//3
f 210//5 209//5 217//5
f 209//5 216//5 217//5
f 216//5 218//5 217//5
f 218//5 210//5 217//5
f 213//1 210//1 219//1
f 210//1 218//1 219//1
f 218//1 220//1 219//1
f 220//1 213//1 219//1
f 218//4 216//4 221//4
f 216//4 215//4 221//4
f 215//4 220//4 221//4
f 220//4 218//4 221//4
f 212//7 213//7 222//7
f 213//7 220//7 222//7
f 220//7 215//7 222//7
f 215//7 212//7 222//7
g Cube_8_1_16_17
usemtl BoisClair
v 889.70166 6.9383206 69.80466
v 850.20166 6.9383206 69.80466
v 869.95166 6.9383206 49.10466
v 889.70166 6.9383206 28.404661
v 850.20166 6.9383206 28.404661
v 889.70166 7.7884965 49.10466
v 889.70166 8.638673 28.404661
v 889.70166 8.638673 69.80466
v 869.95166 7.7884965 69.80466
v 850.20166 8.638673 69.80466
v 850.20166 7.7884965 49.10466
v 850.20166 8.638673 28.404661
v 869.95166 8.638673 49.10466
v 869.95166 7.7884965 28.404661
f 223/1/3 224/2/3 225/3/3
f 226/4/3 223/1/3 225/3/3
f 227/5/3 226/4/3 225/3/3
f 224/2/3 227/5/3 225/3/3
f 223/1/4 226/4/4 228/6/4
f 226/4/4 229/4/4 228/6/4
f 229/4/4 230/1/4 228/6/4
f 230/1/4 223/1/4 228/6/4
f 224/2/5 223/1/5 231/7/5
f 223/1/5 230/1/5 231/7/5
f 230/1/5 232/2/5 231/7/5
f 232/2/5 224/2/5 231/7/5
f 227/5/6 224/2/6 233/8/6
f 224/2/6 232/2/6 233/8/6
f 232/2/6 234/5/6 233/8/6
f 234/5/6 227/5/6 233/8/6
f 232/2/1 230/1/1 235/3/1
f 230/1/1 229/4/1 235/3/1
f 229/4/1 234/5/1 235/3/1
f 234/5/1 232/2/1 235/3/1
f 226/4/7 227/5/7 236/9/7
f 227/5/7 234/5/7 236/9/7
f 234/5/7 229/4/7 236/9/7
f 229/4/7 226/4/7 236/9/7
